<?xml version="1.0" encoding="utf-8"?>
<!-- Generator: Adobe Illustrator 22.1.0, SVG Export Plug-In . SVG Version: 6.00 Build 0)  -->
<svg version="1.1" id="Layer_1" xmlns="http://www.w3.org/2000/svg" xmlns:xlink="http://www.w3.org/1999/xlink" x="0px" y="0px"
	 viewBox="0 0 37.2 27.8" style="enable-background:new 0 0 37.2 27.8;" xml:space="preserve">
<style type="text/css">
	.st0{clip-path:url(#SVGID_2_);fill:#FFFFFF;}
</style>
<g>
	<g>
		<defs>
			<path id="SVGID_1_" d="M32.4,3.7L32.4,3.7C32.3,3.7,32.3,3.7,32.4,3.7H16.1c-2.6,0-3.7,1-3.7,1L7.6,8.6l-3.7,1H1.7
				c-0.3,0-0.5,0.2-0.5,0.5s0.2,0.5,0.5,0.5h1.8v6.6c-0.1,0.5,0.5,0.9,1.6,1.3h0.1c1.9,0.1,3.5-2.1,4-3h3.1l0.8,1.4L13,23
				c0,0.3,0.2,0.5,0.5,0.5l0,0c0.3,0,0.5-0.2,0.5-0.5l0.2-6l2.3-1.2l1,7.3c0,0.3,0.2,0.4,0.5,0.4c0,0,0,0,0.1,0
				c0.3,0,0.5-0.3,0.4-0.6l-1-7.4h4.2c0.7,1.5,1.8,2.4,3,2.6c0.3,0.1,0.5,0.1,0.7,0.1c1.2,0,2.3-0.6,2.9-1l-2,5.8
				c-0.1,0.3,0,0.5,0.3,0.6c0.1,0,0.1,0,0.2,0c0.2,0,0.4-0.1,0.5-0.3l2.1-6.1l2.7,1.5V23c0,0.3,0.2,0.5,0.5,0.5s0.5-0.2,0.5-0.5
				v-4.6c0,0,0,0,0-0.1l0,0c0-0.1-0.5-3.1-1-4.5c-0.4-1.2,0.2-2.7,0.8-3.9c0.4-0.9,0.2-3.7,0-5C33.7,5.2,35,5.9,35,8v5.6
				c0,0.3,0.2,0.5,0.5,0.5s0.5-0.2,0.5-0.5V8C36,4.9,33.6,3.9,32.4,3.7 M24.9,17.2c-0.8-0.2-1.5-0.7-2-1.7h3.3l1.6,0.9
				C27.2,16.8,26,17.5,24.9,17.2 M31.9,9.7c-0.5,1.3-1.3,3.1-0.8,4.6c0.3,0.8,0.6,2.3,0.8,3.3l-5.4-2.9c-0.1,0-0.2-0.1-0.2-0.1h-9.4
				l0,0l0,0h-0.1l0,0L14,16.1l-0.8-1.3c-0.1-0.2-0.3-0.2-0.4-0.2H9c-0.2,0-0.3,0.1-0.4,0.2c-0.5,0.8-1.9,2.7-3.2,2.7l0,0
				c-0.3-0.1-0.7-0.2-0.9-0.3v-6.7l3.5-1c0.1,0,0.1,0,0.2-0.1L13,5.5c0,0,0.9-0.8,3.1-0.8h15.8C32.1,6.4,32.2,8.9,31.9,9.7"/>
		</defs>
		<clipPath id="SVGID_2_">
			<use xlink:href="#SVGID_1_"  style="overflow:visible;"/>
		</clipPath>
		<rect x="-3.8" y="-1.3" class="st0" width="44.8" height="30"/>
	</g>
</g>
</svg>
