<?xml version="1.0" encoding="utf-8"?>
<!-- Generator: Adobe Illustrator 22.1.0, SVG Export Plug-In . SVG Version: 6.00 Build 0)  -->
<svg version="1.1" id="Layer_1" xmlns="http://www.w3.org/2000/svg" xmlns:xlink="http://www.w3.org/1999/xlink" x="0px" y="0px"
	 viewBox="0 0 28.8 27.8" style="enable-background:new 0 0 28.8 27.8;" xml:space="preserve">
<style type="text/css">
	.st0{clip-path:url(#SVGID_2_);enable-background:new    ;}
	.st1{clip-path:url(#SVGID_4_);}
	.st2{clip-path:url(#SVGID_6_);}
	.st3{clip-path:url(#SVGID_8_);fill:#FFFFFF;}
	.st4{fill:none;stroke:#FFFFFF;stroke-miterlimit:10;}
</style>
<g>
	<defs>
		<rect id="SVGID_1_" x="7.4" y="3.9" width="14" height="20"/>
	</defs>
	<clipPath id="SVGID_2_">
		<use xlink:href="#SVGID_1_"  style="overflow:visible;"/>
	</clipPath>
	<g class="st0">
		<g>
			<defs>
				<rect id="SVGID_3_" x="7.4" y="3.9" width="14" height="20"/>
			</defs>
			<clipPath id="SVGID_4_">
				<use xlink:href="#SVGID_3_"  style="overflow:visible;"/>
			</clipPath>
			<g class="st1">
				<defs>
					<path id="SVGID_5_" d="M14.4,3.9c-3.8,0-7,3.2-7,7c0,3.8,6.4,12.4,6.7,12.8c0.1,0.1,0.2,0.2,0.4,0.2c0.1,0,0.3-0.1,0.3-0.2
						c0.3-0.4,6.7-9,6.7-12.8C21.4,7,18.2,3.9,14.4,3.9 M14.4,22.8C13.1,21,8.2,14,8.2,10.9c0-3.4,2.8-6.2,6.2-6.2
						c3.4,0,6.2,2.8,6.2,6.2C20.6,14,15.7,21,14.4,22.8"/>
				</defs>
				<clipPath id="SVGID_6_">
					<use xlink:href="#SVGID_5_"  style="overflow:visible;"/>
				</clipPath>
				<g class="st2">
					<defs>
						<rect id="SVGID_7_" x="7.4" y="3.9" width="14" height="20"/>
					</defs>
					<clipPath id="SVGID_8_">
						<use xlink:href="#SVGID_7_"  style="overflow:visible;"/>
					</clipPath>
					<rect x="2.4" y="-1.1" class="st3" width="24" height="30"/>
				</g>
			</g>
		</g>
	</g>
</g>
<circle class="st4" cx="14.4" cy="10.9" r="3"/>
</svg>
