<?xml version="1.0" encoding="utf-8"?>
<!-- Generator: Adobe Illustrator 22.1.0, SVG Export Plug-In . SVG Version: 6.00 Build 0)  -->
<svg version="1.1" id="Layer_1" xmlns="http://www.w3.org/2000/svg" xmlns:xlink="http://www.w3.org/1999/xlink" x="0px" y="0px"
	 viewBox="0 0 28.8 27.8" style="enable-background:new 0 0 28.8 27.8;" xml:space="preserve">
<style type="text/css">
	.st0{fill:#FFFFFF;}
</style>
<g>
	<path class="st0" d="M9.7,24.3c-0.3,0-0.5-0.2-0.5-0.5c-0.1-7.9-2-12.8-2-12.8c-0.1-0.3,0-0.5,0.3-0.6c0.3-0.1,0.5,0,0.6,0.3
		c0.1,0.2,2,5.1,2,13.2C10.2,24,10,24.2,9.7,24.3C9.7,24.3,9.7,24.3,9.7,24.3z"/>
</g>
<g>
	<path class="st0" d="M11.9,24.3C11.9,24.3,11.9,24.3,11.9,24.3c-0.3,0-0.5-0.3-0.5-0.5c1.1-13.1-1.1-17.8-1.2-17.9
		c-0.1-0.2,0-0.5,0.2-0.7c0.2-0.1,0.5,0,0.7,0.2c0.1,0.2,2.4,5,1.3,18.4C12.4,24.1,12.2,24.3,11.9,24.3z"/>
</g>
<g>
	<path class="st0" d="M7,24.2c-0.2,0-0.5-0.2-0.5-0.4l-0.7-5.2C5.8,18.3,6,18,6.2,18c0.3,0,0.5,0.2,0.6,0.4l0.7,5.2
		C7.5,23.9,7.3,24.2,7,24.2C7.1,24.2,7,24.2,7,24.2z"/>
</g>
<g>
	<path class="st0" d="M20.8,24.3c-0.2,0-0.5-0.2-0.5-0.4c-0.6-5,2.4-9.2,2.5-9.4c0.2-0.2,0.5-0.3,0.7-0.1c0.2,0.2,0.3,0.5,0.1,0.7
		c0,0-2.9,4.1-2.3,8.7C21.3,24,21.1,24.3,20.8,24.3C20.9,24.3,20.8,24.3,20.8,24.3z"/>
</g>
<g>
	<path class="st0" d="M18,24.2c-0.2,0-0.4-0.1-0.5-0.4C16.4,19.7,19,11,19.2,10.7c0.1-0.3,0.4-0.4,0.6-0.3c0.3,0.1,0.4,0.4,0.3,0.6
		c0,0.1-2.7,8.7-1.6,12.6c0.1,0.3-0.1,0.5-0.4,0.6C18.1,24.2,18,24.2,18,24.2z"/>
</g>
<g>
	<path class="st0" d="M15,24.3c-0.2,0-0.4-0.1-0.5-0.4C13,18.8,16.4,4.2,16.5,3.6c0.1-0.3,0.3-0.4,0.6-0.4c0.3,0.1,0.4,0.3,0.4,0.6
		c0,0.1-3.4,14.9-1.9,19.8c0.1,0.3-0.1,0.5-0.3,0.6C15.1,24.3,15.1,24.3,15,24.3z"/>
</g>
</svg>
