<?xml version="1.0" encoding="utf-8"?>
<!-- Generator: Adobe Illustrator 22.1.0, SVG Export Plug-In . SVG Version: 6.00 Build 0)  -->
<svg version="1.1" id="Layer_1" xmlns="http://www.w3.org/2000/svg" xmlns:xlink="http://www.w3.org/1999/xlink" x="0px" y="0px"
	 viewBox="0 0 28.8 27.8" style="enable-background:new 0 0 28.8 27.8;" xml:space="preserve">
<style type="text/css">
	.st0{clip-path:url(#SVGID_2_);fill:none;stroke:#FFFFFF;stroke-width:2;stroke-miterlimit:10;}
	.st1{fill:none;stroke:#FFFFFF;stroke-miterlimit:10;}
	.st2{fill:none;stroke:#FFFFFF;stroke-linecap:round;stroke-linejoin:round;stroke-miterlimit:10;}
</style>
<g>
	<defs>
		<path id="SVGID_1_" d="M6,6.2h16c1.7,0,3,1.3,3,3v11c0,1.7-1.3,3-3,3H6c-1.7,0-3-1.3-3-3v-11C3,7.6,4.3,6.2,6,6.2z"/>
	</defs>
	<clipPath id="SVGID_2_">
		<use xlink:href="#SVGID_1_"  style="overflow:visible;"/>
	</clipPath>
	<path class="st0" d="M6,6.2h16c1.7,0,3,1.3,3,3v11c0,1.7-1.3,3-3,3H6c-1.7,0-3-1.3-3-3v-11C3,7.6,4.3,6.2,6,6.2z"/>
</g>
<line class="st1" x1="24" y1="12.2" x2="4" y2="12.2"/>
<line class="st2" x1="21" y1="3.2" x2="21" y2="8.2"/>
<line class="st2" x1="8" y1="3.2" x2="8" y2="8.2"/>
</svg>
